<svg height="188pt" viewBox="0.00 0.00 82.09 188.00" width="82pt" xmlns="http://www.w3.org/2000/svg" xmlns:xlink="http://www.w3.org/1999/xlink">
<g class="graph" id="graph0" transform="scale(1 1) rotate(0) translate(4 184)">
<title>G</title>
<polygon fill="#ffffff" points="-4,4 -4,-184 78.0934,-184 78.0934,4 -4,4" stroke="transparent"/>
<!-- (&#39;D&#39;, 0) -->
<g class="node" id="node1">
<title>('D', 0)</title>
<ellipse cx="37.0467" cy="-18" fill="none" rx="35.194" ry="18" stroke="#000000"/>
<text fill="#000000" font-family="Times,serif" font-size="14.00" text-anchor="middle" x="37.0467" y="-14.3">('D', 0)</text>
</g>
<!-- (&#39;M&#39;, 4) -->
<g class="node" id="node2">
<title>('M', 4)</title>
<ellipse cx="37.0467" cy="-90" fill="none" rx="37.0935" ry="18" stroke="#000000"/>
<text fill="#000000" font-family="Times,serif" font-size="14.00" text-anchor="middle" x="37.0467" y="-86.3">('M', 4)</text>
</g>
<!-- (&#39;D&#39;, 0)&#45;&gt;(&#39;M&#39;, 4) -->
<g class="edge" id="edge1">
<title>('D', 0)-&gt;('M', 4)</title>
<path d="M37.0467,-36.1686C37.0467,-43.869 37.0467,-53.0257 37.0467,-61.5834" fill="none" stroke="#000000"/>
<polygon fill="#000000" points="33.5468,-61.5867 37.0467,-71.5867 40.5468,-61.5868 33.5468,-61.5867" stroke="#000000"/>
</g>
<!-- (&#39;D&#39;, 3) -->
<g class="node" id="node3">
<title>('D', 3)</title>
<ellipse cx="37.0467" cy="-162" fill="none" rx="35.194" ry="18" stroke="#000000"/>
<text fill="#000000" font-family="Times,serif" font-size="14.00" text-anchor="middle" x="37.0467" y="-158.3">('D', 3)</text>
</g>
<!-- (&#39;M&#39;, 4)&#45;&gt;(&#39;D&#39;, 3) -->
<g class="edge" id="edge2">
<title>('M', 4)-&gt;('D', 3)</title>
<path d="M37.0467,-108.1686C37.0467,-115.869 37.0467,-125.0257 37.0467,-133.5834" fill="none" stroke="#000000"/>
<polygon fill="#000000" points="33.5468,-133.5867 37.0467,-143.5867 40.5468,-133.5868 33.5468,-133.5867" stroke="#000000"/>
</g>
</g>
</svg>