<svg height="188pt" viewBox="0.00 0.00 266.09 188.00" width="266pt" xmlns="http://www.w3.org/2000/svg" xmlns:xlink="http://www.w3.org/1999/xlink">
<g class="graph" id="graph0" transform="scale(1 1) rotate(0) translate(4 184)">
<title>G</title>
<polygon fill="#ffffff" points="-4,4 -4,-184 262.0934,-184 262.0934,4 -4,4" stroke="transparent"/>
<!-- (&#39;D&#39;, 0) -->
<g class="node" id="node1">
<title>('D', 0)</title>
<ellipse cx="83.0467" cy="-18" fill="none" rx="35.194" ry="18" stroke="#000000"/>
<text fill="#000000" font-family="Times,serif" font-size="14.00" text-anchor="middle" x="83.0467" y="-14.3">('D', 0)</text>
</g>
<!-- (&#39;M&#39;, 4) -->
<g class="node" id="node2">
<title>('M', 4)</title>
<ellipse cx="37.0467" cy="-90" fill="none" rx="37.0935" ry="18" stroke="#000000"/>
<text fill="#000000" font-family="Times,serif" font-size="14.00" text-anchor="middle" x="37.0467" y="-86.3">('M', 4)</text>
</g>
<!-- (&#39;D&#39;, 0)&#45;&gt;(&#39;M&#39;, 4) -->
<g class="edge" id="edge1">
<title>('D', 0)-&gt;('M', 4)</title>
<path d="M71.9114,-35.4292C66.4306,-44.0078 59.7121,-54.5238 53.6407,-64.0268" fill="none" stroke="#000000"/>
<polygon fill="#000000" points="50.514,-62.42 48.0795,-72.7313 56.4129,-66.1887 50.514,-62.42" stroke="#000000"/>
</g>
<!-- (&#39;M&#39;, 0) -->
<g class="node" id="node4">
<title>('M', 0)</title>
<ellipse cx="129.0467" cy="-90" fill="none" rx="37.0935" ry="18" stroke="#000000"/>
<text fill="#000000" font-family="Times,serif" font-size="14.00" text-anchor="middle" x="129.0467" y="-86.3">('M', 0)</text>
</g>
<!-- (&#39;D&#39;, 0)&#45;&gt;(&#39;M&#39;, 0) -->
<g class="edge" id="edge2">
<title>('D', 0)-&gt;('M', 0)</title>
<path d="M94.182,-35.4292C99.6628,-44.0078 106.3813,-54.5238 112.4527,-64.0268" fill="none" stroke="#000000"/>
<polygon fill="#000000" points="109.6806,-66.1887 118.0139,-72.7313 115.5794,-62.42 109.6806,-66.1887" stroke="#000000"/>
</g>
<!-- (&#39;D&#39;, 3) -->
<g class="node" id="node3">
<title>('D', 3)</title>
<ellipse cx="37.0467" cy="-162" fill="none" rx="35.194" ry="18" stroke="#000000"/>
<text fill="#000000" font-family="Times,serif" font-size="14.00" text-anchor="middle" x="37.0467" y="-158.3">('D', 3)</text>
</g>
<!-- (&#39;M&#39;, 4)&#45;&gt;(&#39;D&#39;, 3) -->
<g class="edge" id="edge3">
<title>('M', 4)-&gt;('D', 3)</title>
<path d="M37.0467,-108.1686C37.0467,-115.869 37.0467,-125.0257 37.0467,-133.5834" fill="none" stroke="#000000"/>
<polygon fill="#000000" points="33.5468,-133.5867 37.0467,-143.5867 40.5468,-133.5868 33.5468,-133.5867" stroke="#000000"/>
</g>
<!-- (&#39;D&#39;, 2) -->
<g class="node" id="node7">
<title>('D', 2)</title>
<ellipse cx="175.0467" cy="-162" fill="none" rx="35.194" ry="18" stroke="#000000"/>
<text fill="#000000" font-family="Times,serif" font-size="14.00" text-anchor="middle" x="175.0467" y="-158.3">('D', 2)</text>
</g>
<!-- (&#39;M&#39;, 0)&#45;&gt;(&#39;D&#39;, 2) -->
<g class="edge" id="edge4">
<title>('M', 0)-&gt;('D', 2)</title>
<path d="M140.182,-107.4292C145.6628,-116.0078 152.3813,-126.5238 158.4527,-136.0268" fill="none" stroke="#000000"/>
<polygon fill="#000000" points="155.6806,-138.1887 164.0139,-144.7313 161.5794,-134.42 155.6806,-138.1887" stroke="#000000"/>
</g>
<!-- (&#39;D&#39;, 1) -->
<g class="node" id="node5">
<title>('D', 1)</title>
<ellipse cx="221.0467" cy="-18" fill="none" rx="35.194" ry="18" stroke="#000000"/>
<text fill="#000000" font-family="Times,serif" font-size="14.00" text-anchor="middle" x="221.0467" y="-14.3">('D', 1)</text>
</g>
<!-- (&#39;M&#39;, 3) -->
<g class="node" id="node6">
<title>('M', 3)</title>
<ellipse cx="221.0467" cy="-90" fill="none" rx="37.0935" ry="18" stroke="#000000"/>
<text fill="#000000" font-family="Times,serif" font-size="14.00" text-anchor="middle" x="221.0467" y="-86.3">('M', 3)</text>
</g>
<!-- (&#39;D&#39;, 1)&#45;&gt;(&#39;M&#39;, 3) -->
<g class="edge" id="edge5">
<title>('D', 1)-&gt;('M', 3)</title>
<path d="M221.0467,-36.1686C221.0467,-43.869 221.0467,-53.0257 221.0467,-61.5834" fill="none" stroke="#000000"/>
<polygon fill="#000000" points="217.5468,-61.5867 221.0467,-71.5867 224.5468,-61.5868 217.5468,-61.5867" stroke="#000000"/>
</g>
<!-- (&#39;M&#39;, 3)&#45;&gt;(&#39;D&#39;, 2) -->
<g class="edge" id="edge6">
<title>('M', 3)-&gt;('D', 2)</title>
<path d="M209.9114,-107.4292C204.4306,-116.0078 197.7121,-126.5238 191.6407,-136.0268" fill="none" stroke="#000000"/>
<polygon fill="#000000" points="188.514,-134.42 186.0795,-144.7313 194.4129,-138.1887 188.514,-134.42" stroke="#000000"/>
</g>
</g>
</svg>