<svg height="332pt" viewBox="0.00 0.00 191.35 332.00" width="191pt" xmlns="http://www.w3.org/2000/svg" xmlns:xlink="http://www.w3.org/1999/xlink">
<g class="graph" id="graph0" transform="scale(1 1) rotate(0) translate(4 328)">
<title>G</title>
<polygon fill="white" points="-4,4 -4,-328 187.349,-328 187.349,4 -4,4" stroke="none"/>
<!-- (&#39;D&#39;, 2) -->
<g class="node" id="node1"><title>('D', 2)</title>
<ellipse cx="91.6745" cy="-18" fill="none" rx="35.194" ry="18" stroke="black"/>
<text font-family="Times,serif" font-size="14.00" text-anchor="middle" x="91.6745" y="-14.3">('D', 2)</text>
</g>
<!-- (&#39;M&#39;, 5) -->
<g class="node" id="node2"><title>('M', 5)</title>
<ellipse cx="91.6745" cy="-90" fill="none" rx="37.0935" ry="18" stroke="black"/>
<text font-family="Times,serif" font-size="14.00" text-anchor="middle" x="91.6745" y="-86.3">('M', 5)</text>
</g>
<!-- (&#39;D&#39;, 2)&#45;&gt;(&#39;M&#39;, 5) -->
<g class="edge" id="edge1"><title>('D', 2)-&gt;('M', 5)</title>
<path d="M91.6745,-36.3034C91.6745,-44.0173 91.6745,-53.2875 91.6745,-61.8876" fill="none" stroke="black"/>
<polygon fill="black" points="88.1746,-61.8956 91.6745,-71.8957 95.1746,-61.8957 88.1746,-61.8956" stroke="black"/>
</g>
<!-- (&#39;M&#39;, 0) -->
<g class="node" id="node5"><title>('M', 0)</title>
<ellipse cx="45.6745" cy="-234" fill="none" rx="37.0935" ry="18" stroke="black"/>
<text font-family="Times,serif" font-size="14.00" text-anchor="middle" x="45.6745" y="-230.3">('M', 0)</text>
</g>
<!-- (&#39;D&#39;, 2)&#45;&gt;(&#39;M&#39;, 0) -->
<g class="edge" id="edge2"><title>('D', 2)-&gt;('M', 0)</title>
<path d="M75.5781,-34.0408C53.7319,-55.7778 16.0034,-98.3963 3.67453,-144 -0.501145,-159.446 -1.58669,-164.89 3.67453,-180 7.51695,-191.035 14.7203,-201.501 22.0903,-210.173" fill="none" stroke="black"/>
<polygon fill="black" points="19.5068,-212.534 28.814,-217.596 24.6951,-207.835 19.5068,-212.534" stroke="black"/>
</g>
<!-- (&#39;M&#39;, 1) -->
<g class="node" id="node6"><title>('M', 1)</title>
<ellipse cx="137.675" cy="-234" fill="none" rx="37.0935" ry="18" stroke="black"/>
<text font-family="Times,serif" font-size="14.00" text-anchor="middle" x="137.675" y="-230.3">('M', 1)</text>
</g>
<!-- (&#39;D&#39;, 2)&#45;&gt;(&#39;M&#39;, 1) -->
<g class="edge" id="edge3"><title>('D', 2)-&gt;('M', 1)</title>
<path d="M107.771,-34.0408C129.617,-55.7778 167.346,-98.3963 179.675,-144 183.85,-159.446 184.936,-164.89 179.675,-180 175.832,-191.035 168.629,-201.501 161.259,-210.173" fill="none" stroke="black"/>
<polygon fill="black" points="158.654,-207.835 154.535,-217.596 163.842,-212.534 158.654,-207.835" stroke="black"/>
</g>
<!-- (&#39;D&#39;, 1) -->
<g class="node" id="node3"><title>('D', 1)</title>
<ellipse cx="47.6745" cy="-162" fill="none" rx="35.194" ry="18" stroke="black"/>
<text font-family="Times,serif" font-size="14.00" text-anchor="middle" x="47.6745" y="-158.3">('D', 1)</text>
</g>
<!-- (&#39;M&#39;, 5)&#45;&gt;(&#39;D&#39;, 1) -->
<g class="edge" id="edge4"><title>('M', 5)-&gt;('D', 1)</title>
<path d="M81.2471,-107.589C75.9319,-116.045 69.3567,-126.506 63.438,-135.922" fill="none" stroke="black"/>
<polygon fill="black" points="60.3856,-134.201 58.0271,-144.53 66.3121,-137.926 60.3856,-134.201" stroke="black"/>
</g>
<!-- (&#39;D&#39;, 3) -->
<g class="node" id="node4"><title>('D', 3)</title>
<ellipse cx="135.675" cy="-162" fill="none" rx="35.194" ry="18" stroke="black"/>
<text font-family="Times,serif" font-size="14.00" text-anchor="middle" x="135.675" y="-158.3">('D', 3)</text>
</g>
<!-- (&#39;M&#39;, 5)&#45;&gt;(&#39;D&#39;, 3) -->
<g class="edge" id="edge5"><title>('M', 5)-&gt;('D', 3)</title>
<path d="M102.102,-107.589C107.417,-116.045 113.992,-126.506 119.911,-135.922" fill="none" stroke="black"/>
<polygon fill="black" points="117.037,-137.926 125.322,-144.53 122.963,-134.201 117.037,-137.926" stroke="black"/>
</g>
<!-- (&#39;D&#39;, 1)&#45;&gt;(&#39;M&#39;, 0) -->
<g class="edge" id="edge6"><title>('D', 1)-&gt;('M', 0)</title>
<path d="M47.1802,-180.303C46.9598,-188.017 46.6949,-197.288 46.4492,-205.888" fill="none" stroke="black"/>
<polygon fill="black" points="42.9504,-205.8 46.1632,-215.896 49.9475,-206 42.9504,-205.8" stroke="black"/>
</g>
<!-- (&#39;D&#39;, 3)&#45;&gt;(&#39;M&#39;, 1) -->
<g class="edge" id="edge7"><title>('D', 3)-&gt;('M', 1)</title>
<path d="M136.169,-180.303C136.389,-188.017 136.654,-197.288 136.9,-205.888" fill="none" stroke="black"/>
<polygon fill="black" points="133.402,-206 137.186,-215.896 140.399,-205.8 133.402,-206" stroke="black"/>
</g>
<!-- (&#39;D&#39;, 4) -->
<g class="node" id="node7"><title>('D', 4)</title>
<ellipse cx="91.6745" cy="-306" fill="none" rx="35.194" ry="18" stroke="black"/>
<text font-family="Times,serif" font-size="14.00" text-anchor="middle" x="91.6745" y="-302.3">('D', 4)</text>
</g>
<!-- (&#39;M&#39;, 0)&#45;&gt;(&#39;D&#39;, 4) -->
<g class="edge" id="edge8"><title>('M', 0)-&gt;('D', 4)</title>
<path d="M56.5759,-251.589C62.1328,-260.045 69.0068,-270.506 75.1945,-279.922" fill="none" stroke="black"/>
<polygon fill="black" points="72.4346,-282.095 80.8514,-288.53 78.2846,-278.251 72.4346,-282.095" stroke="black"/>
</g>
<!-- (&#39;M&#39;, 1)&#45;&gt;(&#39;D&#39;, 4) -->
<g class="edge" id="edge9"><title>('M', 1)-&gt;('D', 4)</title>
<path d="M126.773,-251.589C121.216,-260.045 114.342,-270.506 108.155,-279.922" fill="none" stroke="black"/>
<polygon fill="black" points="105.064,-278.251 102.498,-288.53 110.914,-282.095 105.064,-278.251" stroke="black"/>
</g>
</g>
</svg>