<svg height="620pt" viewBox="0.00 0.00 536.10 620.00" width="536pt" xmlns="http://www.w3.org/2000/svg" xmlns:xlink="http://www.w3.org/1999/xlink">
<g class="graph" id="graph0" transform="scale(1 1) rotate(0) translate(4 616)">
<title>G</title>
<polygon fill="white" points="-4,4 -4,-616 532.097,-616 532.097,4 -4,4" stroke="none"/>
<!-- (&#39;D&#39;, 5) -->
<g class="node" id="node1"><title>('D', 5)</title>
<ellipse cx="405" cy="-18" fill="none" rx="35.194" ry="18" stroke="black"/>
<text font-family="Times,serif" font-size="14.00" text-anchor="middle" x="405" y="-14.3">('D', 5)</text>
</g>
<!-- (&#39;M&#39;, 3) -->
<g class="node" id="node2"><title>('M', 3)</title>
<ellipse cx="405" cy="-90" fill="none" rx="37.0935" ry="18" stroke="black"/>
<text font-family="Times,serif" font-size="14.00" text-anchor="middle" x="405" y="-86.3">('M', 3)</text>
</g>
<!-- (&#39;D&#39;, 5)&#45;&gt;(&#39;M&#39;, 3) -->
<g class="edge" id="edge1"><title>('D', 5)-&gt;('M', 3)</title>
<path d="M405,-36.3034C405,-44.0173 405,-53.2875 405,-61.8876" fill="none" stroke="black"/>
<polygon fill="black" points="401.5,-61.8956 405,-71.8957 408.5,-61.8957 401.5,-61.8956" stroke="black"/>
</g>
<!-- (&#39;D&#39;, 4) -->
<g class="node" id="node5"><title>('D', 4)</title>
<ellipse cx="404" cy="-162" fill="none" rx="35.194" ry="18" stroke="black"/>
<text font-family="Times,serif" font-size="14.00" text-anchor="middle" x="404" y="-158.3">('D', 4)</text>
</g>
<!-- (&#39;M&#39;, 3)&#45;&gt;(&#39;D&#39;, 4) -->
<g class="edge" id="edge2"><title>('M', 3)-&gt;('D', 4)</title>
<path d="M404.753,-108.303C404.643,-116.017 404.51,-125.288 404.387,-133.888" fill="none" stroke="black"/>
<polygon fill="black" points="400.888,-133.847 404.244,-143.896 407.887,-133.947 400.888,-133.847" stroke="black"/>
</g>
<!-- (&#39;D&#39;, 6) -->
<g class="node" id="node3"><title>('D', 6)</title>
<ellipse cx="493" cy="-18" fill="none" rx="35.194" ry="18" stroke="black"/>
<text font-family="Times,serif" font-size="14.00" text-anchor="middle" x="493" y="-14.3">('D', 6)</text>
</g>
<!-- (&#39;D&#39;, 6)&#45;&gt;(&#39;M&#39;, 3) -->
<g class="edge" id="edge3"><title>('D', 6)-&gt;('M', 3)</title>
<path d="M474.766,-33.504C462.225,-43.4798 445.373,-56.8855 431.372,-68.022" fill="none" stroke="black"/>
<polygon fill="black" points="429.16,-65.3093 423.513,-74.2737 433.518,-70.7875 429.16,-65.3093" stroke="black"/>
</g>
<!-- (&#39;D&#39;, 8) -->
<g class="node" id="node4"><title>('D', 8)</title>
<ellipse cx="317" cy="-18" fill="none" rx="35.194" ry="18" stroke="black"/>
<text font-family="Times,serif" font-size="14.00" text-anchor="middle" x="317" y="-14.3">('D', 8)</text>
</g>
<!-- (&#39;D&#39;, 8)&#45;&gt;(&#39;M&#39;, 3) -->
<g class="edge" id="edge4"><title>('D', 8)-&gt;('M', 3)</title>
<path d="M335.234,-33.504C347.775,-43.4798 364.627,-56.8855 378.628,-68.022" fill="none" stroke="black"/>
<polygon fill="black" points="376.482,-70.7875 386.487,-74.2737 380.84,-65.3093 376.482,-70.7875" stroke="black"/>
</g>
<!-- (&#39;M&#39;, 6) -->
<g class="node" id="node10"><title>('M', 6)</title>
<ellipse cx="271" cy="-378" fill="none" rx="37.0935" ry="18" stroke="black"/>
<text font-family="Times,serif" font-size="14.00" text-anchor="middle" x="271" y="-374.3">('M', 6)</text>
</g>
<!-- (&#39;D&#39;, 8)&#45;&gt;(&#39;M&#39;, 6) -->
<g class="edge" id="edge5"><title>('D', 8)-&gt;('M', 6)</title>
<path d="M321.544,-35.9058C328.247,-62.373 340,-115.297 340,-161 340,-161 340,-161 340,-235 340,-275.447 339.796,-288.186 321,-324 314.938,-335.551 305.646,-346.396 296.71,-355.23" fill="none" stroke="black"/>
<polygon fill="black" points="294.245,-352.744 289.367,-362.149 299.046,-357.839 294.245,-352.744" stroke="black"/>
</g>
<!-- (&#39;M&#39;, 0) -->
<g class="node" id="node13"><title>('M', 0)</title>
<ellipse cx="115" cy="-378" fill="none" rx="37.0935" ry="18" stroke="black"/>
<text font-family="Times,serif" font-size="14.00" text-anchor="middle" x="115" y="-374.3">('M', 0)</text>
</g>
<!-- (&#39;D&#39;, 8)&#45;&gt;(&#39;M&#39;, 0) -->
<g class="edge" id="edge6"><title>('D', 8)-&gt;('M', 0)</title>
<path d="M281.864,-18.9979C199.329,-21.0221 0,-38.5828 0,-161 0,-161 0,-161 0,-235 0,-288.811 50.4891,-333.655 84.5594,-357.79" fill="none" stroke="black"/>
<polygon fill="black" points="82.6033,-360.692 92.8268,-363.473 86.5685,-354.924 82.6033,-360.692" stroke="black"/>
</g>
<!-- (&#39;M&#39;, 4) -->
<g class="node" id="node6"><title>('M', 4)</title>
<ellipse cx="189" cy="-234" fill="none" rx="37.0935" ry="18" stroke="black"/>
<text font-family="Times,serif" font-size="14.00" text-anchor="middle" x="189" y="-230.3">('M', 4)</text>
</g>
<!-- (&#39;D&#39;, 4)&#45;&gt;(&#39;M&#39;, 4) -->
<g class="edge" id="edge7"><title>('D', 4)-&gt;('M', 4)</title>
<path d="M375.004,-172.441C337.228,-184.74 271.013,-206.298 228.624,-220.099" fill="none" stroke="black"/>
<polygon fill="black" points="227.341,-216.836 218.916,-223.26 229.508,-223.492 227.341,-216.836" stroke="black"/>
</g>
<!-- (&#39;D&#39;, 1) -->
<g class="node" id="node8"><title>('D', 1)</title>
<ellipse cx="189" cy="-306" fill="none" rx="35.194" ry="18" stroke="black"/>
<text font-family="Times,serif" font-size="14.00" text-anchor="middle" x="189" y="-302.3">('D', 1)</text>
</g>
<!-- (&#39;M&#39;, 4)&#45;&gt;(&#39;D&#39;, 1) -->
<g class="edge" id="edge8"><title>('M', 4)-&gt;('D', 1)</title>
<path d="M189,-252.303C189,-260.017 189,-269.288 189,-277.888" fill="none" stroke="black"/>
<polygon fill="black" points="185.5,-277.896 189,-287.896 192.5,-277.896 185.5,-277.896" stroke="black"/>
</g>
<!-- (&#39;D&#39;, 2) -->
<g class="node" id="node9"><title>('D', 2)</title>
<ellipse cx="101" cy="-306" fill="none" rx="35.194" ry="18" stroke="black"/>
<text font-family="Times,serif" font-size="14.00" text-anchor="middle" x="101" y="-302.3">('D', 2)</text>
</g>
<!-- (&#39;M&#39;, 4)&#45;&gt;(&#39;D&#39;, 2) -->
<g class="edge" id="edge9"><title>('M', 4)-&gt;('D', 2)</title>
<path d="M170.337,-249.845C157.887,-259.749 141.33,-272.919 127.518,-283.906" fill="none" stroke="black"/>
<polygon fill="black" points="124.981,-281.452 119.334,-290.416 129.339,-286.93 124.981,-281.452" stroke="black"/>
</g>
<!-- (&#39;D&#39;, 9) -->
<g class="node" id="node7"><title>('D', 9)</title>
<ellipse cx="189" cy="-162" fill="none" rx="35.194" ry="18" stroke="black"/>
<text font-family="Times,serif" font-size="14.00" text-anchor="middle" x="189" y="-158.3">('D', 9)</text>
</g>
<!-- (&#39;D&#39;, 9)&#45;&gt;(&#39;M&#39;, 4) -->
<g class="edge" id="edge10"><title>('D', 9)-&gt;('M', 4)</title>
<path d="M189,-180.303C189,-188.017 189,-197.288 189,-205.888" fill="none" stroke="black"/>
<polygon fill="black" points="185.5,-205.896 189,-215.896 192.5,-205.896 185.5,-205.896" stroke="black"/>
</g>
<!-- (&#39;D&#39;, 9)&#45;&gt;(&#39;M&#39;, 0) -->
<g class="edge" id="edge11"><title>('D', 9)-&gt;('M', 0)</title>
<path d="M166.418,-176.038C134.968,-195.668 79.3283,-236.105 57,-288 50.6764,-302.697 50.5459,-309.359 57,-324 62.8315,-337.228 73.7755,-348.588 84.5994,-357.358" fill="none" stroke="black"/>
<polygon fill="black" points="82.6828,-360.297 92.7664,-363.548 86.9112,-354.719 82.6828,-360.297" stroke="black"/>
</g>
<!-- (&#39;M&#39;, 1) -->
<g class="node" id="node14"><title>('M', 1)</title>
<ellipse cx="237" cy="-522" fill="none" rx="37.0935" ry="18" stroke="black"/>
<text font-family="Times,serif" font-size="14.00" text-anchor="middle" x="237" y="-518.3">('M', 1)</text>
</g>
<!-- (&#39;D&#39;, 9)&#45;&gt;(&#39;M&#39;, 1) -->
<g class="edge" id="edge12"><title>('D', 9)-&gt;('M', 1)</title>
<path d="M219.787,-170.776C273.342,-186.36 378,-226.816 378,-305 378,-305 378,-305 378,-379 378,-438.753 314.356,-482.312 272.586,-504.465" fill="none" stroke="black"/>
<polygon fill="black" points="270.817,-501.439 263.521,-509.122 274.015,-507.666 270.817,-501.439" stroke="black"/>
</g>
<!-- (&#39;D&#39;, 1)&#45;&gt;(&#39;M&#39;, 6) -->
<g class="edge" id="edge13"><title>('D', 1)-&gt;('M', 6)</title>
<path d="M206.39,-321.845C217.728,-331.524 232.72,-344.322 245.409,-355.154" fill="none" stroke="black"/>
<polygon fill="black" points="243.474,-358.104 253.352,-361.935 248.019,-352.78 243.474,-358.104" stroke="black"/>
</g>
<!-- (&#39;D&#39;, 1)&#45;&gt;(&#39;M&#39;, 0) -->
<g class="edge" id="edge14"><title>('D', 1)-&gt;('M', 0)</title>
<path d="M172.943,-322.189C162.927,-331.663 149.858,-344.026 138.668,-354.612" fill="none" stroke="black"/>
<polygon fill="black" points="136.141,-352.184 131.281,-361.599 140.951,-357.27 136.141,-352.184" stroke="black"/>
</g>
<!-- (&#39;D&#39;, 1)&#45;&gt;(&#39;M&#39;, 1) -->
<g class="edge" id="edge15"><title>('D', 1)-&gt;('M', 1)</title>
<path d="M191.827,-324.041C196.847,-353.557 208.021,-416.019 221,-468 223.152,-476.619 225.836,-485.922 228.386,-494.292" fill="none" stroke="black"/>
<polygon fill="black" points="225.073,-495.424 231.387,-503.931 231.756,-493.343 225.073,-495.424" stroke="black"/>
</g>
<!-- (&#39;D&#39;, 2)&#45;&gt;(&#39;M&#39;, 0) -->
<g class="edge" id="edge16"><title>('D', 2)-&gt;('M', 0)</title>
<path d="M104.389,-323.945C105.931,-331.654 107.795,-340.973 109.527,-349.636" fill="none" stroke="black"/>
<polygon fill="black" points="106.152,-350.605 111.545,-359.725 113.016,-349.232 106.152,-350.605" stroke="black"/>
</g>
<!-- (&#39;D&#39;, 0) -->
<g class="node" id="node12"><title>('D', 0)</title>
<ellipse cx="265" cy="-450" fill="none" rx="35.194" ry="18" stroke="black"/>
<text font-family="Times,serif" font-size="14.00" text-anchor="middle" x="265" y="-446.3">('D', 0)</text>
</g>
<!-- (&#39;M&#39;, 6)&#45;&gt;(&#39;D&#39;, 0) -->
<g class="edge" id="edge17"><title>('M', 6)-&gt;('D', 0)</title>
<path d="M269.517,-396.303C268.856,-404.017 268.061,-413.288 267.324,-421.888" fill="none" stroke="black"/>
<polygon fill="black" points="263.833,-421.633 266.466,-431.896 270.807,-422.231 263.833,-421.633" stroke="black"/>
</g>
<!-- (&#39;D&#39;, 7) -->
<g class="node" id="node11"><title>('D', 7)</title>
<ellipse cx="277" cy="-306" fill="none" rx="35.194" ry="18" stroke="black"/>
<text font-family="Times,serif" font-size="14.00" text-anchor="middle" x="277" y="-302.3">('D', 7)</text>
</g>
<!-- (&#39;D&#39;, 7)&#45;&gt;(&#39;M&#39;, 6) -->
<g class="edge" id="edge18"><title>('D', 7)-&gt;('M', 6)</title>
<path d="M275.517,-324.303C274.856,-332.017 274.061,-341.288 273.324,-349.888" fill="none" stroke="black"/>
<polygon fill="black" points="269.833,-349.633 272.466,-359.896 276.807,-350.231 269.833,-349.633" stroke="black"/>
</g>
<!-- (&#39;D&#39;, 7)&#45;&gt;(&#39;M&#39;, 0) -->
<g class="edge" id="edge19"><title>('D', 7)-&gt;('M', 0)</title>
<path d="M250.972,-318.247C223.935,-329.929 181.427,-348.297 151.141,-361.384" fill="none" stroke="black"/>
<polygon fill="black" points="149.564,-358.252 141.772,-365.432 152.34,-364.678 149.564,-358.252" stroke="black"/>
</g>
<!-- (&#39;D&#39;, 0)&#45;&gt;(&#39;M&#39;, 1) -->
<g class="edge" id="edge20"><title>('D', 0)-&gt;('M', 1)</title>
<path d="M258.222,-467.945C254.989,-476.027 251.049,-485.879 247.445,-494.888" fill="none" stroke="black"/>
<polygon fill="black" points="244.18,-493.626 243.716,-504.211 250.679,-496.226 244.18,-493.626" stroke="black"/>
</g>
<!-- (&#39;D&#39;, 10) -->
<g class="node" id="node15"><title>('D', 10)</title>
<ellipse cx="190" cy="-594" fill="none" rx="39.7935" ry="18" stroke="black"/>
<text font-family="Times,serif" font-size="14.00" text-anchor="middle" x="190" y="-590.3">('D', 10)</text>
</g>
<!-- (&#39;M&#39;, 0)&#45;&gt;(&#39;D&#39;, 10) -->
<g class="edge" id="edge21"><title>('M', 0)-&gt;('D', 10)</title>
<path d="M120.885,-395.792C133.86,-432.814 165.013,-521.703 180.676,-566.396" fill="none" stroke="black"/>
<polygon fill="black" points="177.428,-567.71 184.038,-575.99 184.034,-565.395 177.428,-567.71" stroke="black"/>
</g>
<!-- (&#39;M&#39;, 1)&#45;&gt;(&#39;D&#39;, 10) -->
<g class="edge" id="edge22"><title>('M', 1)-&gt;('D', 10)</title>
<path d="M226.099,-539.235C220.369,-547.77 213.219,-558.418 206.799,-567.981" fill="none" stroke="black"/>
<polygon fill="black" points="203.837,-566.113 201.168,-576.367 209.648,-570.015 203.837,-566.113" stroke="black"/>
</g>
</g>
</svg>