<svg height="332pt" viewBox="0.00 0.00 180.14 332.00" width="180pt" xmlns="http://www.w3.org/2000/svg" xmlns:xlink="http://www.w3.org/1999/xlink">
<g class="graph" id="graph0" transform="scale(1 1) rotate(0) translate(4 328)">
<title>G</title>
<polygon fill="white" points="-4,4 -4,-328 176.144,-328 176.144,4 -4,4" stroke="none"/>
<!-- (&#39;D&#39;, 1) -->
<g class="node" id="node1"><title>('D', 1)</title>
<ellipse cx="39.0467" cy="-18" fill="none" rx="35.194" ry="18" stroke="black"/>
<text font-family="Times,serif" font-size="14.00" text-anchor="middle" x="39.0467" y="-14.3">('D', 1)</text>
</g>
<!-- (&#39;M&#39;, 2) -->
<g class="node" id="node2"><title>('M', 2)</title>
<ellipse cx="83.0467" cy="-90" fill="none" rx="37.0935" ry="18" stroke="black"/>
<text font-family="Times,serif" font-size="14.00" text-anchor="middle" x="83.0467" y="-86.3">('M', 2)</text>
</g>
<!-- (&#39;D&#39;, 1)&#45;&gt;(&#39;M&#39;, 2) -->
<g class="edge" id="edge1"><title>('D', 1)-&gt;('M', 2)</title>
<path d="M49.2518,-35.2354C54.5616,-43.6828 61.1729,-54.2007 67.1362,-63.6878" fill="none" stroke="black"/>
<polygon fill="black" points="64.3064,-65.7628 72.5914,-72.3666 70.2329,-62.0376 64.3064,-65.7628" stroke="black"/>
</g>
<!-- (&#39;M&#39;, 0) -->
<g class="node" id="node5"><title>('M', 0)</title>
<ellipse cx="37.0467" cy="-234" fill="none" rx="37.0935" ry="18" stroke="black"/>
<text font-family="Times,serif" font-size="14.00" text-anchor="middle" x="37.0467" y="-230.3">('M', 0)</text>
</g>
<!-- (&#39;D&#39;, 1)&#45;&gt;(&#39;M&#39;, 0) -->
<g class="edge" id="edge2"><title>('D', 1)-&gt;('M', 0)</title>
<path d="M38.2342,-36.1811C37.7847,-46.5515 37.2724,-60.0318 37.0467,-72 36.165,-118.748 36.4355,-173.145 36.729,-205.235" fill="none" stroke="black"/>
<polygon fill="black" points="33.2328,-205.641 36.8319,-215.606 40.2324,-205.572 33.2328,-205.641" stroke="black"/>
</g>
<!-- (&#39;D&#39;, 2) -->
<g class="node" id="node4"><title>('D', 2)</title>
<ellipse cx="83.0467" cy="-162" fill="none" rx="35.194" ry="18" stroke="black"/>
<text font-family="Times,serif" font-size="14.00" text-anchor="middle" x="83.0467" y="-158.3">('D', 2)</text>
</g>
<!-- (&#39;M&#39;, 2)&#45;&gt;(&#39;D&#39;, 2) -->
<g class="edge" id="edge3"><title>('M', 2)-&gt;('D', 2)</title>
<path d="M83.0467,-108.303C83.0467,-116.017 83.0467,-125.288 83.0467,-133.888" fill="none" stroke="black"/>
<polygon fill="black" points="79.5468,-133.896 83.0467,-143.896 86.5468,-133.896 79.5468,-133.896" stroke="black"/>
</g>
<!-- (&#39;D&#39;, 3) -->
<g class="node" id="node3"><title>('D', 3)</title>
<ellipse cx="137.047" cy="-18" fill="none" rx="35.194" ry="18" stroke="black"/>
<text font-family="Times,serif" font-size="14.00" text-anchor="middle" x="137.047" y="-14.3">('D', 3)</text>
</g>
<!-- (&#39;D&#39;, 3)&#45;&gt;(&#39;M&#39;, 2) -->
<g class="edge" id="edge4"><title>('D', 3)-&gt;('M', 2)</title>
<path d="M124.793,-34.8841C117.986,-43.708 109.375,-54.8702 101.745,-64.762" fill="none" stroke="black"/>
<polygon fill="black" points="98.9632,-62.6373 95.6264,-72.693 104.506,-66.913 98.9632,-62.6373" stroke="black"/>
</g>
<!-- (&#39;M&#39;, 1) -->
<g class="node" id="node6"><title>('M', 1)</title>
<ellipse cx="129.047" cy="-234" fill="none" rx="37.0935" ry="18" stroke="black"/>
<text font-family="Times,serif" font-size="14.00" text-anchor="middle" x="129.047" y="-230.3">('M', 1)</text>
</g>
<!-- (&#39;D&#39;, 3)&#45;&gt;(&#39;M&#39;, 1) -->
<g class="edge" id="edge5"><title>('D', 3)-&gt;('M', 1)</title>
<path d="M136.406,-36.1508C135.022,-73.1683 131.745,-160.819 130.07,-205.614" fill="none" stroke="black"/>
<polygon fill="black" points="126.567,-205.644 129.691,-215.768 133.562,-205.905 126.567,-205.644" stroke="black"/>
</g>
<!-- (&#39;D&#39;, 2)&#45;&gt;(&#39;M&#39;, 0) -->
<g class="edge" id="edge6"><title>('D', 2)-&gt;('M', 0)</title>
<path d="M72.3778,-179.235C66.7694,-187.77 59.7722,-198.418 53.4878,-207.981" fill="none" stroke="black"/>
<polygon fill="black" points="50.5441,-206.087 47.9772,-216.367 56.394,-209.932 50.5441,-206.087" stroke="black"/>
</g>
<!-- (&#39;D&#39;, 2)&#45;&gt;(&#39;M&#39;, 1) -->
<g class="edge" id="edge7"><title>('D', 2)-&gt;('M', 1)</title>
<path d="M93.7157,-179.235C99.3241,-187.77 106.321,-198.418 112.606,-207.981" fill="none" stroke="black"/>
<polygon fill="black" points="109.699,-209.932 118.116,-216.367 115.549,-206.087 109.699,-209.932" stroke="black"/>
</g>
<!-- (&#39;D&#39;, 4) -->
<g class="node" id="node7"><title>('D', 4)</title>
<ellipse cx="83.0467" cy="-306" fill="none" rx="35.194" ry="18" stroke="black"/>
<text font-family="Times,serif" font-size="14.00" text-anchor="middle" x="83.0467" y="-302.3">('D', 4)</text>
</g>
<!-- (&#39;M&#39;, 0)&#45;&gt;(&#39;D&#39;, 4) -->
<g class="edge" id="edge8"><title>('M', 0)-&gt;('D', 4)</title>
<path d="M47.9481,-251.589C53.5049,-260.045 60.379,-270.506 66.5667,-279.922" fill="none" stroke="black"/>
<polygon fill="black" points="63.8068,-282.095 72.2236,-288.53 69.6568,-278.251 63.8068,-282.095" stroke="black"/>
</g>
<!-- (&#39;M&#39;, 1)&#45;&gt;(&#39;D&#39;, 4) -->
<g class="edge" id="edge9"><title>('M', 1)-&gt;('D', 4)</title>
<path d="M118.145,-251.589C112.588,-260.045 105.714,-270.506 99.5267,-279.922" fill="none" stroke="black"/>
<polygon fill="black" points="96.4367,-278.251 93.8698,-288.53 102.287,-282.095 96.4367,-278.251" stroke="black"/>
</g>
</g>
</svg>