<svg height="332pt" viewBox="0.00 0.00 430.19 332.00" width="430pt" xmlns="http://www.w3.org/2000/svg" xmlns:xlink="http://www.w3.org/1999/xlink">
<g class="graph" id="graph0" transform="scale(1 1) rotate(0) translate(4 328)">
<title>G</title>
<polygon fill="white" points="-4,4 -4,-328 426.194,-328 426.194,4 -4,4" stroke="none"/>
<!-- (&#39;D&#39;, 1) -->
<g class="node" id="node1"><title>('D', 1)</title>
<ellipse cx="35.0969" cy="-18" fill="none" rx="35.194" ry="18" stroke="black"/>
<text font-family="Times,serif" font-size="14.00" text-anchor="middle" x="35.0969" y="-14.3">('D', 1)</text>
</g>
<!-- (&#39;M&#39;, 6) -->
<g class="node" id="node2"><title>('M', 6)</title>
<ellipse cx="121.097" cy="-90" fill="none" rx="37.0935" ry="18" stroke="black"/>
<text font-family="Times,serif" font-size="14.00" text-anchor="middle" x="121.097" y="-86.3">('M', 6)</text>
</g>
<!-- (&#39;D&#39;, 1)&#45;&gt;(&#39;M&#39;, 6) -->
<g class="edge" id="edge1"><title>('D', 1)-&gt;('M', 6)</title>
<path d="M53.3353,-33.8452C65.4213,-43.6827 81.4665,-56.7427 94.9095,-67.6847" fill="none" stroke="black"/>
<polygon fill="black" points="92.9197,-70.5779 102.885,-74.1762 97.3386,-65.149 92.9197,-70.5779" stroke="black"/>
</g>
<!-- (&#39;M&#39;, 0) -->
<g class="node" id="node6"><title>('M', 0)</title>
<ellipse cx="213.097" cy="-90" fill="none" rx="37.0935" ry="18" stroke="black"/>
<text font-family="Times,serif" font-size="14.00" text-anchor="middle" x="213.097" y="-86.3">('M', 0)</text>
</g>
<!-- (&#39;D&#39;, 1)&#45;&gt;(&#39;M&#39;, 0) -->
<g class="edge" id="edge2"><title>('D', 1)-&gt;('M', 0)</title>
<path d="M62.1313,-29.6315C92.4044,-41.5367 141.667,-60.9094 175.639,-74.2695" fill="none" stroke="black"/>
<polygon fill="black" points="174.633,-77.6346 185.22,-78.0373 177.195,-71.1202 174.633,-77.6346" stroke="black"/>
</g>
<!-- (&#39;M&#39;, 1) -->
<g class="node" id="node9"><title>('M', 1)</title>
<ellipse cx="137.097" cy="-234" fill="none" rx="37.0935" ry="18" stroke="black"/>
<text font-family="Times,serif" font-size="14.00" text-anchor="middle" x="137.097" y="-230.3">('M', 1)</text>
</g>
<!-- (&#39;D&#39;, 1)&#45;&gt;(&#39;M&#39;, 1) -->
<g class="edge" id="edge3"><title>('D', 1)-&gt;('M', 1)</title>
<path d="M38.5476,-35.9154C45.2385,-66.308 61.8553,-131.503 90.0969,-180 96.4153,-190.85 105.169,-201.475 113.411,-210.33" fill="none" stroke="black"/>
<polygon fill="black" points="110.983,-212.854 120.448,-217.616 116.019,-207.991 110.983,-212.854" stroke="black"/>
</g>
<!-- (&#39;D&#39;, 0) -->
<g class="node" id="node5"><title>('D', 0)</title>
<ellipse cx="134.097" cy="-162" fill="none" rx="35.194" ry="18" stroke="black"/>
<text font-family="Times,serif" font-size="14.00" text-anchor="middle" x="134.097" y="-158.3">('D', 0)</text>
</g>
<!-- (&#39;M&#39;, 6)&#45;&gt;(&#39;D&#39;, 0) -->
<g class="edge" id="edge4"><title>('M', 6)-&gt;('D', 0)</title>
<path d="M124.244,-107.945C125.676,-115.654 127.406,-124.973 129.015,-133.636" fill="none" stroke="black"/>
<polygon fill="black" points="125.621,-134.532 130.889,-143.725 132.504,-133.254 125.621,-134.532" stroke="black"/>
</g>
<!-- (&#39;D&#39;, 7) -->
<g class="node" id="node3"><title>('D', 7)</title>
<ellipse cx="211.097" cy="-18" fill="none" rx="35.194" ry="18" stroke="black"/>
<text font-family="Times,serif" font-size="14.00" text-anchor="middle" x="211.097" y="-14.3">('D', 7)</text>
</g>
<!-- (&#39;D&#39;, 7)&#45;&gt;(&#39;M&#39;, 6) -->
<g class="edge" id="edge5"><title>('D', 7)-&gt;('M', 6)</title>
<path d="M192.449,-33.504C179.623,-43.4798 162.387,-56.8855 148.069,-68.022" fill="none" stroke="black"/>
<polygon fill="black" points="145.775,-65.3715 140.031,-74.2737 150.073,-70.897 145.775,-65.3715" stroke="black"/>
</g>
<!-- (&#39;D&#39;, 7)&#45;&gt;(&#39;M&#39;, 0) -->
<g class="edge" id="edge6"><title>('D', 7)-&gt;('M', 0)</title>
<path d="M211.591,-36.3034C211.812,-44.0173 212.077,-53.2875 212.322,-61.8876" fill="none" stroke="black"/>
<polygon fill="black" points="208.824,-61.9997 212.608,-71.8957 215.821,-61.7998 208.824,-61.9997" stroke="black"/>
</g>
<!-- (&#39;D&#39;, 8) -->
<g class="node" id="node4"><title>('D', 8)</title>
<ellipse cx="123.097" cy="-18" fill="none" rx="35.194" ry="18" stroke="black"/>
<text font-family="Times,serif" font-size="14.00" text-anchor="middle" x="123.097" y="-14.3">('D', 8)</text>
</g>
<!-- (&#39;D&#39;, 8)&#45;&gt;(&#39;M&#39;, 6) -->
<g class="edge" id="edge7"><title>('D', 8)-&gt;('M', 6)</title>
<path d="M122.603,-36.3034C122.382,-44.0173 122.117,-53.2875 121.872,-61.8876" fill="none" stroke="black"/>
<polygon fill="black" points="118.373,-61.7998 121.586,-71.8957 125.37,-61.9997 118.373,-61.7998" stroke="black"/>
</g>
<!-- (&#39;D&#39;, 8)&#45;&gt;(&#39;M&#39;, 0) -->
<g class="edge" id="edge8"><title>('D', 8)-&gt;('M', 0)</title>
<path d="M141.745,-33.504C154.571,-43.4798 171.807,-56.8855 186.125,-68.022" fill="none" stroke="black"/>
<polygon fill="black" points="184.121,-70.897 194.163,-74.2737 188.418,-65.3715 184.121,-70.897" stroke="black"/>
</g>
<!-- (&#39;D&#39;, 0)&#45;&gt;(&#39;M&#39;, 1) -->
<g class="edge" id="edge9"><title>('D', 0)-&gt;('M', 1)</title>
<path d="M134.838,-180.303C135.169,-188.017 135.566,-197.288 135.935,-205.888" fill="none" stroke="black"/>
<polygon fill="black" points="132.439,-206.055 136.364,-215.896 139.432,-205.755 132.439,-206.055" stroke="black"/>
</g>
<!-- (&#39;D&#39;, 10) -->
<g class="node" id="node10"><title>('D', 10)</title>
<ellipse cx="173.097" cy="-306" fill="none" rx="39.7935" ry="18" stroke="black"/>
<text font-family="Times,serif" font-size="14.00" text-anchor="middle" x="173.097" y="-302.3">('D', 10)</text>
</g>
<!-- (&#39;M&#39;, 0)&#45;&gt;(&#39;D&#39;, 10) -->
<g class="edge" id="edge10"><title>('M', 0)-&gt;('D', 10)</title>
<path d="M209.869,-108.394C204.387,-137.923 192.896,-199.742 183.097,-252 181.519,-260.412 179.794,-269.574 178.226,-277.878" fill="none" stroke="black"/>
<polygon fill="black" points="174.766,-277.34 176.349,-287.816 181.645,-278.639 174.766,-277.34" stroke="black"/>
</g>
<!-- (&#39;D&#39;, 2) -->
<g class="node" id="node7"><title>('D', 2)</title>
<ellipse cx="299.097" cy="-18" fill="none" rx="35.194" ry="18" stroke="black"/>
<text font-family="Times,serif" font-size="14.00" text-anchor="middle" x="299.097" y="-14.3">('D', 2)</text>
</g>
<!-- (&#39;D&#39;, 2)&#45;&gt;(&#39;M&#39;, 0) -->
<g class="edge" id="edge11"><title>('D', 2)-&gt;('M', 0)</title>
<path d="M280.858,-33.8452C268.772,-43.6827 252.727,-56.7427 239.284,-67.6847" fill="none" stroke="black"/>
<polygon fill="black" points="236.855,-65.149 231.309,-74.1762 241.274,-70.5779 236.855,-65.149" stroke="black"/>
</g>
<!-- (&#39;D&#39;, 9) -->
<g class="node" id="node8"><title>('D', 9)</title>
<ellipse cx="387.097" cy="-18" fill="none" rx="35.194" ry="18" stroke="black"/>
<text font-family="Times,serif" font-size="14.00" text-anchor="middle" x="387.097" y="-14.3">('D', 9)</text>
</g>
<!-- (&#39;D&#39;, 9)&#45;&gt;(&#39;M&#39;, 0) -->
<g class="edge" id="edge12"><title>('D', 9)-&gt;('M', 0)</title>
<path d="M360.291,-29.7841C330.791,-41.6518 283.181,-60.8054 250.128,-74.1024" fill="none" stroke="black"/>
<polygon fill="black" points="248.768,-70.8769 240.797,-77.8563 251.381,-77.3711 248.768,-70.8769" stroke="black"/>
</g>
<!-- (&#39;D&#39;, 9)&#45;&gt;(&#39;M&#39;, 1) -->
<g class="edge" id="edge13"><title>('D', 9)-&gt;('M', 1)</title>
<path d="M369.913,-33.7091C326.666,-70.7286 213.154,-167.895 162.332,-211.399" fill="none" stroke="black"/>
<polygon fill="black" points="160.055,-208.741 154.734,-217.903 164.607,-214.059 160.055,-208.741" stroke="black"/>
</g>
<!-- (&#39;M&#39;, 1)&#45;&gt;(&#39;D&#39;, 10) -->
<g class="edge" id="edge14"><title>('M', 1)-&gt;('D', 10)</title>
<path d="M145.628,-251.589C149.826,-259.751 154.984,-269.78 159.692,-278.935" fill="none" stroke="black"/>
<polygon fill="black" points="156.691,-280.752 164.377,-288.044 162.916,-277.55 156.691,-280.752" stroke="black"/>
</g>
</g>
</svg>