<svg height="332pt" viewBox="0.00 0.00 159.94 332.00" width="160pt" xmlns="http://www.w3.org/2000/svg" xmlns:xlink="http://www.w3.org/1999/xlink">
<g class="graph" id="graph0" transform="scale(1 1) rotate(0) translate(4 328)">
<title>G</title>
<polygon fill="#ffffff" points="-4,4 -4,-328 155.9441,-328 155.9441,4 -4,4" stroke="transparent"/>
<!-- (&#39;D&#39;, 2) -->
<g class="node" id="node1">
<title>('D', 2)</title>
<ellipse cx="35.0969" cy="-18" fill="none" rx="35.194" ry="18" stroke="#000000"/>
<text fill="#000000" font-family="Times,serif" font-size="14.00" text-anchor="middle" x="35.0969" y="-14.3">('D', 2)</text>
</g>
<!-- (&#39;M&#39;, 1) -->
<g class="node" id="node2">
<title>('M', 1)</title>
<ellipse cx="77.0969" cy="-90" fill="none" rx="37.0935" ry="18" stroke="#000000"/>
<text fill="#000000" font-family="Times,serif" font-size="14.00" text-anchor="middle" x="77.0969" y="-86.3">('M', 1)</text>
</g>
<!-- (&#39;D&#39;, 2)&#45;&gt;(&#39;M&#39;, 1) -->
<g class="edge" id="edge1">
<title>('D', 2)-&gt;('M', 1)</title>
<path d="M45.2639,-35.4292C50.2313,-43.9447 56.3123,-54.3692 61.8235,-63.817" fill="none" stroke="#000000"/>
<polygon fill="#000000" points="58.8159,-65.6075 66.8779,-72.4818 64.8624,-62.0804 58.8159,-65.6075" stroke="#000000"/>
</g>
<!-- (&#39;D&#39;, 0) -->
<g class="node" id="node4">
<title>('D', 0)</title>
<ellipse cx="77.0969" cy="-162" fill="none" rx="35.194" ry="18" stroke="#000000"/>
<text fill="#000000" font-family="Times,serif" font-size="14.00" text-anchor="middle" x="77.0969" y="-158.3">('D', 0)</text>
</g>
<!-- (&#39;M&#39;, 1)&#45;&gt;(&#39;D&#39;, 0) -->
<g class="edge" id="edge2">
<title>('M', 1)-&gt;('D', 0)</title>
<path d="M77.0969,-108.1686C77.0969,-115.869 77.0969,-125.0257 77.0969,-133.5834" fill="none" stroke="#000000"/>
<polygon fill="#000000" points="73.597,-133.5867 77.0969,-143.5867 80.597,-133.5868 73.597,-133.5867" stroke="#000000"/>
</g>
<!-- (&#39;I&#39;, 3) -->
<g class="node" id="node3">
<title>('I', 3)</title>
<ellipse cx="120.0969" cy="-18" fill="none" rx="31.6951" ry="18" stroke="#000000"/>
<text fill="#000000" font-family="Times,serif" font-size="14.00" text-anchor="middle" x="120.0969" y="-14.3">('I', 3)</text>
</g>
<!-- (&#39;I&#39;, 3)&#45;&gt;(&#39;M&#39;, 1) -->
<g class="edge" id="edge3">
<title>('I', 3)-&gt;('M', 1)</title>
<path d="M109.9065,-35.063C104.7873,-43.6346 98.4723,-54.2086 92.754,-63.7835" fill="none" stroke="#000000"/>
<polygon fill="#000000" points="89.6354,-62.1793 87.5128,-72.5593 95.6452,-65.7685 89.6354,-62.1793" stroke="#000000"/>
</g>
<!-- (&#39;M&#39;, 4) -->
<g class="node" id="node5">
<title>('M', 4)</title>
<ellipse cx="77.0969" cy="-234" fill="none" rx="37.0935" ry="18" stroke="#000000"/>
<text fill="#000000" font-family="Times,serif" font-size="14.00" text-anchor="middle" x="77.0969" y="-230.3">('M', 4)</text>
</g>
<!-- (&#39;D&#39;, 0)&#45;&gt;(&#39;M&#39;, 4) -->
<g class="edge" id="edge4">
<title>('D', 0)-&gt;('M', 4)</title>
<path d="M77.0969,-180.1686C77.0969,-187.869 77.0969,-197.0257 77.0969,-205.5834" fill="none" stroke="#000000"/>
<polygon fill="#000000" points="73.597,-205.5867 77.0969,-215.5867 80.597,-205.5868 73.597,-205.5867" stroke="#000000"/>
</g>
<!-- (&#39;D&#39;, 3) -->
<g class="node" id="node6">
<title>('D', 3)</title>
<ellipse cx="77.0969" cy="-306" fill="none" rx="35.194" ry="18" stroke="#000000"/>
<text fill="#000000" font-family="Times,serif" font-size="14.00" text-anchor="middle" x="77.0969" y="-302.3">('D', 3)</text>
</g>
<!-- (&#39;M&#39;, 4)&#45;&gt;(&#39;D&#39;, 3) -->
<g class="edge" id="edge5">
<title>('M', 4)-&gt;('D', 3)</title>
<path d="M77.0969,-252.1686C77.0969,-259.869 77.0969,-269.0257 77.0969,-277.5834" fill="none" stroke="#000000"/>
<polygon fill="#000000" points="73.597,-277.5867 77.0969,-287.5867 80.597,-277.5868 73.597,-277.5867" stroke="#000000"/>
</g>
</g>
</svg>